# Blender v2.79 (sub 0) OBJ File: 'map.blend'
# www.blender.org
mtllib map.mtl
o Plane.001_Plane.044
v 6.827490 -0.000000 6.070194
v 5.560289 -0.000000 6.070193
v 5.560292 0.000000 1.651705
v 6.827493 0.000000 1.651706
v 7.207651 -0.000000 4.689095
v 7.207652 0.000000 3.307996
v 5.180130 -0.000000 4.689095
v 5.180131 0.000000 3.307997
vn 0.0000 1.0000 0.0000
usemtl None
s 1
f 6//1 4//1 3//1 8//1
f 1//1 5//1 7//1 2//1
f 5//1 6//1 8//1 7//1
o Plane.000_Plane.043
v 10.342200 -0.000000 5.576114
v 9.075000 -0.000000 5.576114
v 9.075002 0.000000 2.211417
v 10.342202 0.000000 2.211418
v 10.722361 -0.000000 4.524402
v 10.722362 0.000000 3.472690
v 8.694840 -0.000000 4.524402
v 8.694841 0.000000 3.472690
vn 0.0000 1.0000 0.0000
usemtl None
s 1
f 14//2 12//2 11//2 16//2
f 9//2 13//2 15//2 10//2
f 13//2 14//2 16//2 15//2
o Plane.015_Plane.042
v 9.991194 -0.000000 0.259874
v 2.451354 -0.000000 0.259869
v 2.451354 0.000000 0.066018
v 9.991194 0.000000 0.066023
vn -0.0000 1.0000 0.0000
usemtl None
s 1
f 17//3 20//3 19//3 18//3
o Plane.014_Plane.041
v 12.250130 -0.000000 2.784508
v 9.620545 -0.000000 0.154921
v 9.745052 0.000000 0.030414
v 12.374637 0.000000 2.660001
vn -0.0000 1.0000 0.0000
usemtl None
s 1
f 21//4 24//4 23//4 22//4
o Plane.013_Plane.040
v 12.127141 -0.000000 5.564555
v 12.127142 -0.000000 2.189113
v 12.269942 0.000000 2.189113
v 12.269941 0.000000 5.564555
vn -0.0000 1.0000 -0.0000
usemtl None
s 1
f 25//5 28//5 27//5 26//5
o Plane.012_Plane.039
v 9.620544 -0.000000 7.589999
v 12.250131 -0.000000 4.960417
v 12.374638 0.000000 5.084924
v 9.745051 0.000000 7.714506
vn -0.0000 1.0000 -0.0000
usemtl None
s 1
f 29//6 32//6 31//6 30//6
o Plane.011_Plane.038
v 9.991194 -0.000000 7.658298
v 2.451354 -0.000000 7.658294
v 2.451354 0.000000 7.464443
v 9.991194 0.000000 7.464448
vn -0.0000 1.0000 0.0000
usemtl None
s 1
f 33//7 36//7 35//7 34//7
o Plane.010_Plane.037
v 0.100544 -0.000000 2.659999
v 2.730130 -0.000000 0.030416
v 2.854637 0.000000 0.154923
v 0.225051 0.000000 2.784506
vn -0.0000 1.0000 -0.0000
usemtl None
s 1
f 37//8 40//8 39//8 38//8
o Plane.009_Plane.036
v 2.730129 -0.000000 7.628295
v 0.100545 -0.000000 4.998706
v 0.225052 0.000000 4.874199
v 2.854636 0.000000 7.503788
vn -0.0000 1.0000 0.0000
usemtl None
s 1
f 41//9 44//9 43//9 42//9
o Plane.008_Plane.035
v 0.191021 -0.000000 5.536104
v 0.191022 -0.000000 2.217564
v 0.333822 0.000000 2.217564
v 0.333821 0.000000 5.536104
vn -0.0000 1.0000 -0.0000
usemtl None
s 1
f 45//10 48//10 47//10 46//10
o Plane.005_Plane.011
v 3.342200 -0.000000 5.576114
v 2.075000 -0.000000 5.576114
v 2.075002 0.000000 2.211417
v 3.342202 0.000000 2.211418
v 3.722361 -0.000000 4.524402
v 3.722362 0.000000 3.472690
v 1.694841 -0.000000 4.524402
v 1.694842 0.000000 3.472690
vn 0.0000 1.0000 0.0000
usemtl None
s 1
f 54//11 52//11 51//11 56//11
f 49//11 53//11 55//11 50//11
f 53//11 54//11 56//11 55//11
